<?xml version="1.0" encoding="UTF-8" standalone="no"?>
<svg
   width="220"
   height="280"
   viewBox="0 0 165.00003 210.00001"
   version="1.1"
   id="svg63"
   sodipodi:docname="background.svg"
   inkscape:version="1.1.2 (0a00cf5339, 2022-02-04)"
   xmlns:inkscape="http://www.inkscape.org/namespaces/inkscape"
   xmlns:sodipodi="http://sodipodi.sourceforge.net/DTD/sodipodi-0.dtd"
   xmlns="http://www.w3.org/2000/svg"
   xmlns:svg="http://www.w3.org/2000/svg">
  <defs
     id="defs67" />
  <sodipodi:namedview
     id="namedview65"
     pagecolor="#ffffff"
     bordercolor="#666666"
     borderopacity="1.0"
     inkscape:pageshadow="2"
     inkscape:pageopacity="0.0"
     inkscape:pagecheckerboard="0"
     inkscape:document-units="in"
     showgrid="false"
     inkscape:zoom="0.70751962"
     inkscape:cx="64.309171"
     inkscape:cy="82.683219"
     inkscape:window-width="1342"
     inkscape:window-height="695"
     inkscape:window-x="0"
     inkscape:window-y="0"
     inkscape:window-maximized="1"
     inkscape:current-layer="svg63"
     units="mm"
     width="220px" />
  <path
     id="Selection"
     fill="none"
     stroke="#000000"
     stroke-width="1"
     d="m 78.268641,173.50014 c -1.82,5.21 -4.19,10.13 -6.78,15 -2.52,4.73 -7.34,11.45 -12.22,13.82 -4.2,2.04 -9.37,0.28 -9.57,-4.84 -0.1,-2.66 3.18,-9.96 4.23,-12.98 3.05,-8.82 3.94,-13.95 5.37,-23 0.58,-3.24 1.84,-9.74 0,-12.58 -1.67,-2.45 -15.27,-7.01 -19.03,-9.09 -11.81,-6.53 -20.42,-15.39 -26.68,-27.33 -16.4299993,-31.299997 -2.659999,-70.909997 24.68,-91.239997 13.58,-10.099999 29.24,-14.7899995 46,-14.7599995 31.129999,0.05 59.789999,19.6199995 70.769999,48.9999995 4.62,12.37 4.38,18.21 4.23,31 -0.07,5.99 -1.1,10.35 -3,15.999997 -2.34,6.91 -5.52,13.24 -10.02,19 -6.02,7.72 -10.64,11.85 -18.98,16.93 -6.81,4.15 -21.05,8.95 -28.999999,10.07 0.02,7.61 1.43,21.72 3.419999,29 0.93,3.38 5.39,16.68 5.08,18.98 -0.7,5.27 -7.219999,7.05 -11.459999,4.84 -3.76,-1.95 -7.19,-8.07 -9.07,-11.82 -3.08,-6.12 -3.77,-10.07 -7.97,-16 z m -2,-123.999997 c 0,0 -10,0 -10,0 0,0 1,25 1,25 0.04,2.14 -0.13,5.38 2.3,6.34 4.3,1.72 4.62,-3.69 4.7,-6.34 0,0 2,-25 2,-25 z m 22,1.01 c -2.66,-0.66 -8.05,-1.85 -10.4,0 -1.98,1.57 -1.6,5.69 -1.6,7.99 -0.01,4.43 -0.72,19.3 1.95,22.26 0.79,0.86 1.88,1.3 3.04,1.2 4.1,-0.34 4.53,-6.3 4.95,-9.46 0,0 0,-8 0,-8 0.24,-3.34 1.27,-10.75 2.06,-13.99 z m 3.939999,59.599997 c -9.619999,0.65 -10.709999,2.54 -23.939999,2.39 -4.25,-0.05 -17.74,-3.09 -20.26,-1.01 -2.2,1.83 -1.5,5.63 2.32,7.28 2.21,0.95 18.75,2.57 21.94,2.69 3.04,0.12 19.439999,-1.29 21.569999,-2.49 2.93,-1.66 3.71,-7.1 -1.63,-8.86 z m 8.06,19.39 c 0,0 -19.999999,1 -19.999999,1 -12.73,0.02 -25.54,0.07 -38,-3 -2.05,7.9 4.66,8.13 11,8.83 10.27,1.15 24.85,2.05 35,0.59 6.269999,-0.9 11.409999,0 11.999999,-7.42 z"
     style="stroke:none;fill:#90ee9f;fill-opacity:1" />
</svg>
